<svg width="36" height="37" viewBox="0 0 36 37" fill="none" xmlns="http://www.w3.org/2000/svg">
<path d="M31.35 3.08325H4.65C4.21239 3.08325 3.79271 3.26192 3.48327 3.57995C3.17384 3.89798 3 4.32932 3 4.77909V32.2208C3 32.4435 3.04268 32.664 3.1256 32.8697C3.20852 33.0755 3.33006 33.2624 3.48327 33.4199C3.63649 33.5774 3.81839 33.7023 4.01857 33.7875C4.21876 33.8727 4.43332 33.9166 4.65 33.9166H19.02V21.9687H15.12V17.3437H19.02V13.8749C18.9392 13.0605 19.0328 12.2379 19.2941 11.4646C19.5554 10.6913 19.9781 9.98613 20.5327 9.39855C21.0872 8.81097 21.7602 8.3552 22.5042 8.0632C23.2483 7.77121 24.0455 7.65006 24.84 7.70825C26.0075 7.70087 27.1744 7.76264 28.335 7.89325V12.0558H25.95C24.06 12.0558 23.7 12.9808 23.7 14.322V17.2974H28.2L27.615 21.9224H23.7V33.9166H31.35C31.5667 33.9166 31.7812 33.8727 31.9814 33.7875C32.1816 33.7023 32.3635 33.5774 32.5167 33.4199C32.6699 33.2624 32.7915 33.0755 32.8744 32.8697C32.9573 32.664 33 32.4435 33 32.2208V4.77909C33 4.55639 32.9573 4.33587 32.8744 4.13012C32.7915 3.92437 32.6699 3.73742 32.5167 3.57995C32.3635 3.42248 32.1816 3.29756 31.9814 3.21234C31.7812 3.12712 31.5667 3.08325 31.35 3.08325Z" fill="#E8E8E8"/>
</svg>
