<svg width="30" height="31" viewBox="0 0 30 31" fill="none" xmlns="http://www.w3.org/2000/svg">
<path d="M23.01 5.41742C22.654 5.41742 22.306 5.52592 22.01 5.7292C21.714 5.93248 21.4833 6.22141 21.347 6.55945C21.2108 6.8975 21.1751 7.26947 21.2446 7.62834C21.314 7.9872 21.4855 8.31684 21.7372 8.57557C21.9889 8.83429 22.3097 9.01049 22.6588 9.08187C23.008 9.15325 23.3699 9.11662 23.6988 8.9766C24.0277 8.83657 24.3089 8.59945 24.5066 8.29522C24.7044 7.99099 24.81 7.63331 24.81 7.26742C24.81 6.77677 24.6204 6.30621 24.2828 5.95927C23.9452 5.61233 23.4874 5.41742 23.01 5.41742ZM29.91 9.14825C29.8808 7.86913 29.6477 6.60358 29.22 5.402C28.8386 4.37391 28.245 3.44297 27.48 2.67325C26.7372 1.88303 25.8293 1.27677 24.825 0.900335C23.659 0.447333 22.4263 0.202284 21.18 0.175752C19.59 0.0832519 19.08 0.083252 15 0.083252C10.92 0.083252 10.41 0.0832519 8.82 0.175752C7.57373 0.202284 6.34101 0.447333 5.175 0.900335C4.17251 1.28059 3.2654 1.88632 2.52 2.67325C1.75114 3.43665 1.16126 4.36976 0.795 5.402C0.354241 6.60041 0.115815 7.86736 0.0899999 9.14825C-8.3819e-08 10.7824 0 11.3066 0 15.4999C0 19.6933 -8.3819e-08 20.2174 0.0899999 21.8516C0.115815 23.1325 0.354241 24.3994 0.795 25.5978C1.16126 26.6301 1.75114 27.5632 2.52 28.3266C3.2654 29.1135 4.17251 29.7193 5.175 30.0995C6.34101 30.5525 7.57373 30.7976 8.82 30.8241C10.41 30.9166 10.92 30.9166 15 30.9166C19.08 30.9166 19.59 30.9166 21.18 30.8241C22.4263 30.7976 23.659 30.5525 24.825 30.0995C25.8293 29.7231 26.7372 29.1168 27.48 28.3266C28.2484 27.5597 28.8425 26.628 29.22 25.5978C29.6477 24.3963 29.8808 23.1307 29.91 21.8516C29.91 20.2174 30 19.6933 30 15.4999C30 11.3066 30 10.7824 29.91 9.14825ZM27.21 21.6666C27.1991 22.6452 27.0266 23.6148 26.7 24.5341C26.4605 25.205 26.0758 25.8112 25.575 26.307C25.0885 26.8165 24.4998 27.2111 23.85 27.4633C22.9555 27.799 22.0122 27.9762 21.06 27.9874C19.56 28.0645 19.005 28.0799 15.06 28.0799C11.115 28.0799 10.56 28.0799 9.06 27.9874C8.07133 28.0064 7.08689 27.85 6.15 27.5249C5.52867 27.2599 4.96703 26.8663 4.5 26.3687C4.00213 25.8734 3.62226 25.2667 3.39 24.5958C3.02378 23.6633 2.82066 22.6717 2.79 21.6666C2.79 20.1249 2.7 19.5545 2.7 15.4999C2.7 11.4453 2.7 10.8749 2.79 9.33325C2.79672 8.3328 2.97442 7.34133 3.315 6.40409C3.57907 5.75337 3.9844 5.17331 4.5 4.70825C4.95572 4.17818 5.51893 3.75719 6.15 3.47492C7.06433 3.13582 8.028 2.95858 9 2.95075C10.5 2.95075 11.055 2.85825 15 2.85825C18.945 2.85825 19.5 2.85825 21 2.95075C21.9522 2.96198 22.8956 3.13922 23.79 3.47492C24.4716 3.73492 25.0834 4.15764 25.575 4.70825C26.0665 5.18182 26.4506 5.7608 26.7 6.40409C27.0334 7.34286 27.2059 8.33391 27.21 9.33325C27.285 10.8749 27.3 11.4453 27.3 15.4999C27.3 19.5545 27.285 20.1249 27.21 21.6666ZM15 7.59117C13.4787 7.59422 11.9924 8.06065 10.729 8.93152C9.46552 9.8024 8.48157 11.0386 7.90145 12.484C7.32133 13.9294 7.17108 15.5191 7.46969 17.0523C7.76829 18.5854 8.50235 19.9932 9.57911 21.0977C10.6559 22.2022 12.027 22.9539 13.5193 23.2578C15.0116 23.5617 16.558 23.4042 17.9632 22.8052C19.3684 22.2061 20.5693 21.1924 21.4142 19.8922C22.2591 18.5919 22.71 17.0635 22.71 15.4999C22.712 14.4595 22.5138 13.4289 22.1269 12.4674C21.7399 11.5059 21.1718 10.6326 20.4553 9.89758C19.7388 9.16258 18.8879 8.58042 17.9517 8.1846C17.0155 7.78878 16.0123 7.5871 15 7.59117ZM15 20.6337C14.0121 20.6337 13.0463 20.3326 12.2249 19.7685C11.4035 19.2044 10.7633 18.4026 10.3852 17.4645C10.0072 16.5265 9.90824 15.4942 10.101 14.4984C10.2937 13.5025 10.7694 12.5878 11.468 11.8698C12.1666 11.1518 13.0566 10.6629 14.0255 10.4648C14.9945 10.2667 15.9988 10.3684 16.9115 10.757C17.8242 11.1455 18.6043 11.8035 19.1532 12.6478C19.702 13.492 19.995 14.4846 19.995 15.4999C19.995 16.1741 19.8658 16.8417 19.6148 17.4645C19.3638 18.0874 18.9958 18.6533 18.532 19.13C18.0682 19.6067 17.5175 19.9849 16.9115 20.2429C16.3055 20.5009 15.656 20.6337 15 20.6337Z" fill="#E8E8E8"/>
</svg>
