<svg width="30" height="31" viewBox="0 0 30 31" fill="none" xmlns="http://www.w3.org/2000/svg">
<path d="M27.7048 0.0832234H2.29484C2.00921 0.0791463 1.7256 0.132938 1.46019 0.241528C1.19479 0.350117 0.952799 0.511376 0.74804 0.716096C0.543281 0.920816 0.379766 1.16499 0.266832 1.43466C0.153897 1.70434 0.0937563 1.99424 0.0898438 2.28781V28.712C0.0937563 29.0055 0.153897 29.2954 0.266832 29.5651C0.379766 29.8348 0.543281 30.079 0.74804 30.2837C0.952799 30.4884 1.19479 30.6497 1.46019 30.7583C1.7256 30.8668 2.00921 30.9206 2.29484 30.9166H27.7048C27.9905 30.9206 28.2741 30.8668 28.5395 30.7583C28.8049 30.6497 29.0469 30.4884 29.2516 30.2837C29.4564 30.079 29.6199 29.8348 29.7329 29.5651C29.8458 29.2954 29.9059 29.0055 29.9098 28.712V2.28781C29.9059 1.99424 29.8458 1.70434 29.7329 1.43466C29.6199 1.16499 29.4564 0.920816 29.2516 0.716096C29.0469 0.511376 28.8049 0.350117 28.5395 0.241528C28.2741 0.132938 27.9905 0.0791463 27.7048 0.0832234ZM9.13484 25.8907H4.63484V12.0157H9.13484V25.8907ZM6.88484 10.0732C6.26424 10.0732 5.66905 9.81984 5.23021 9.36882C4.79138 8.91779 4.54484 8.30607 4.54484 7.66822C4.54484 7.03038 4.79138 6.41866 5.23021 5.96763C5.66905 5.51661 6.26424 5.26322 6.88484 5.26322C7.21439 5.22481 7.54811 5.25837 7.86416 5.36171C8.18021 5.46505 8.47145 5.63583 8.71883 5.86287C8.96621 6.08992 9.16413 6.3681 9.29965 6.67922C9.43517 6.99033 9.50522 7.32736 9.50522 7.66822C9.50522 8.00909 9.43517 8.34612 9.29965 8.65723C9.16413 8.96834 8.96621 9.24653 8.71883 9.47357C8.47145 9.70062 8.18021 9.8714 7.86416 9.97474C7.54811 10.0781 7.21439 10.1116 6.88484 10.0732ZM25.3648 25.8907H20.8648V18.4445C20.8648 16.5791 20.2198 15.3611 18.5848 15.3611C18.0788 15.3649 17.5861 15.5281 17.1731 15.8285C16.7601 16.129 16.4466 16.5523 16.2748 17.0416C16.1575 17.4039 16.1066 17.7855 16.1248 18.167V25.8753H11.6248C11.6248 25.8753 11.6248 13.2645 11.6248 12.0003H16.1248V13.9582C16.5336 13.2292 17.1282 12.6286 17.8445 12.2211C18.5608 11.8136 19.3717 11.6147 20.1898 11.6457C23.1898 11.6457 25.3648 13.6345 25.3648 17.9049V25.8907Z" fill="#E8E8E8"/>
</svg>
