<svg width="26" height="31" viewBox="0 0 26 31" fill="none" xmlns="http://www.w3.org/2000/svg">
<path d="M17.8212 9.88313C19.868 11.3856 22.3744 12.2697 25.0816 12.2697V8.05704C23.5705 7.72638 22.2327 6.91517 21.2269 5.78684C19.5052 4.6832 18.2647 2.86248 17.901 0.731445H14.1057V22.1073C14.0971 24.5993 12.1284 26.6171 9.7006 26.6171C8.26995 26.6171 6.99895 25.9165 6.19401 24.8313C4.75661 24.0861 3.7709 22.5561 3.7709 20.7892C3.7709 18.2903 5.74286 16.2643 8.17587 16.2643C8.64202 16.2643 9.09132 16.3388 9.51277 16.4762V12.2175C4.28795 12.3284 0.0859375 16.7139 0.0859375 22.1074C0.0859375 24.7998 1.13234 27.2406 2.83065 29.024C4.36278 30.0808 6.20717 30.6971 8.19153 30.6971C13.5099 30.6971 17.8213 26.2682 17.8213 20.8048V9.88313H17.8212Z" fill="#E8E8E8"/>
</svg>
