<svg width="34" height="25" viewBox="0 0 34 25" fill="none" xmlns="http://www.w3.org/2000/svg">
<path d="M33.5 8.96962C33.5742 6.76296 33.1047 4.57281 32.135 2.60254C31.4771 1.79408 30.5641 1.24851 29.555 1.06087C25.3813 0.671638 21.1903 0.512105 17 0.582953C12.825 0.508889 8.6491 0.663274 4.49004 1.04545C3.66777 1.19918 2.90682 1.59558 2.30004 2.18629C0.95004 3.46587 0.80004 5.65504 0.65004 7.50504C0.432408 10.8313 0.432408 14.1688 0.65004 17.495C0.693436 18.5363 0.844281 19.5699 1.10004 20.5784C1.2809 21.357 1.64682 22.0774 2.16504 22.675C2.77594 23.297 3.55462 23.716 4.40004 23.8775C7.63391 24.2878 10.8924 24.4578 14.15 24.3863C19.4 24.4634 24.005 24.3863 29.45 23.9546C30.3162 23.803 31.1168 23.3835 31.745 22.7521C32.165 22.3203 32.4787 21.7918 32.66 21.2105C33.1965 19.5187 33.46 17.748 33.44 15.9688C33.5 15.1055 33.5 9.89462 33.5 8.96962ZM13.61 16.8938V7.35087L22.49 12.1455C20 13.5638 16.715 15.1671 13.61 16.8938Z" fill="#E8E8E8"/>
</svg>
