<svg width="30" height="27" viewBox="0 0 30 27" fill="none" xmlns="http://www.w3.org/2000/svg">
<path d="M30 3.94175C28.8725 4.44448 27.6801 4.77681 26.46 4.92841C27.7473 4.13803 28.7119 2.89462 29.175 1.42883C27.9653 2.16893 26.6411 2.69037 25.26 2.9705C24.3368 1.94154 23.1074 1.25662 21.7647 1.02314C20.422 0.789664 19.0418 1.02084 17.8407 1.68041C16.6396 2.33999 15.6854 3.39065 15.1279 4.66762C14.5703 5.94459 14.4409 7.37564 14.76 8.73633C12.3141 8.60918 9.92166 7.95463 7.73798 6.8152C5.5543 5.67577 3.62827 4.07694 2.085 2.12258C1.54371 3.09409 1.25928 4.19431 1.26 5.31383C1.25808 6.3535 1.50633 7.37753 1.98263 8.29474C2.45894 9.21195 3.14853 9.99388 3.99 10.5709C3.01197 10.5436 2.05483 10.2738 1.2 9.78466V9.86175C1.20733 11.3185 1.70399 12.7278 2.60597 13.8515C3.50795 14.9752 4.75988 15.7442 6.15 16.0284C5.61488 16.1958 5.05931 16.284 4.5 16.2905C4.11283 16.2858 3.72663 16.2498 3.345 16.1826C3.74086 17.4357 4.50693 18.5308 5.53661 19.3155C6.56629 20.1002 7.80836 20.5356 9.09 20.5609C6.9258 22.3111 4.25382 23.2663 1.5 23.2742C0.998603 23.2759 0.497603 23.245 0 23.1817C2.81164 25.0476 6.08822 26.038 9.435 26.0338C11.7445 26.0585 14.0357 25.6099 16.1747 24.7143C18.3136 23.8187 20.2575 22.494 21.8928 20.8176C23.5281 19.1412 24.8219 17.1467 25.6988 14.9506C26.5757 12.7546 27.0181 10.4009 27 8.02716C27 7.76508 27 7.48758 27 7.21008C28.177 6.30791 29.1922 5.20194 30 3.94175Z" fill="#E8E8E8"/>
</svg>
