<svg width="30" height="31" viewBox="0 0 30 31" fill="none" xmlns="http://www.w3.org/2000/svg">
<path d="M21.9 18.5832C21.6 18.4291 19.65 17.5041 19.35 17.3499C19.05 17.1957 18.75 17.1957 18.45 17.5041C18.15 17.8124 17.55 18.7374 17.25 19.0457C17.1 19.3541 16.8 19.3541 16.5 19.1999C15.45 18.7374 14.4 18.1207 13.5 17.3499C12.75 16.5791 12 15.6541 11.4 14.7291C11.25 14.4207 11.4 14.1124 11.55 13.9582C11.7 13.8041 11.85 13.4957 12.15 13.3416C12.3 13.1874 12.45 12.8791 12.45 12.7249C12.6 12.5707 12.6 12.2624 12.45 12.1082C12.3 11.9541 11.55 10.1041 11.25 9.33322C11.1 8.25405 10.8 8.25405 10.5 8.25405C10.35 8.25405 10.05 8.25405 9.75 8.25405C9.45 8.25405 9 8.56239 8.85 8.71655C7.95 9.64155 7.5 10.7207 7.5 11.9541C7.65 13.3416 8.1 14.7291 9 15.9624C10.65 18.4291 12.75 20.4332 15.3 21.6666C16.05 21.9749 16.65 22.2832 17.4 22.4374C18.15 22.7457 18.9 22.7457 19.8 22.5916C20.85 22.4374 21.75 21.6666 22.35 20.7416C22.65 20.1249 22.65 19.5082 22.5 18.8916C22.5 18.8916 22.2 18.7374 21.9 18.5832ZM25.65 4.55405C19.8 -1.45845 10.35 -1.45845 4.5 4.55405C-0.3 9.48739 -1.2 17.0416 2.1 23.0541L0 30.9166L7.95 28.7582C10.2 29.9916 12.6 30.6082 15 30.6082C23.25 30.6082 29.85 23.8249 29.85 15.3457C30 11.3374 28.35 7.48322 25.65 4.55405ZM21.6 26.1374C19.65 27.3707 17.4 28.1416 15 28.1416C12.75 28.1416 10.65 27.5249 8.7 26.4457L8.25 26.1374L3.6 27.3707L4.8 22.7457L4.5 22.2832C0.9 16.1166 2.7 8.40822 8.55 4.55405C14.4 0.699886 21.9 2.70405 25.5 8.56239C29.1 14.5749 27.45 22.4374 21.6 26.1374Z" fill="#E8E8E8"/>
</svg>
