<svg width="146" height="146" viewBox="0 0 146 146" fill="none" xmlns="http://www.w3.org/2000/svg">
<path d="M89.6514 85.0023L89.5581 84.9494C83.6427 81.5946 78.178 77.5011 73.2953 72.7676L73.2931 72.7654L73.2931 72.7654C68.5596 67.8828 64.4662 62.418 61.1113 56.5026L61.0574 56.4077L61.1567 56.3623L63.9526 55.086C63.953 55.0858 63.9534 55.0856 63.9538 55.0854C66.6282 53.7756 68.7238 51.5231 69.8375 48.7612C70.9513 45.9989 71.0042 42.9223 69.986 40.1233C69.0184 37.4977 68.2247 34.8112 67.6099 32.0813C67.6099 32.0812 67.6099 32.0812 67.6099 32.0811L89.6514 85.0023ZM89.6514 85.0023L89.6976 84.9056L91.0356 82.1081M89.6514 85.0023L90.9458 82.0641M105.998 76.0746C108.6 77.0503 111.267 77.8443 113.979 78.4508C114.252 78.5127 114.528 78.5801 114.807 78.648C115.883 78.9104 116.995 79.1816 118.068 79.1833C122.165 79.9929 125.859 82.1912 128.524 85.4074C131.192 88.6262 132.666 92.6671 132.699 96.8474V115.097V115.097C132.702 117.654 132.165 120.184 131.123 122.519C130.08 124.855 128.556 126.944 126.649 128.649C123.318 131.616 119.011 133.253 114.549 133.247V133.246L114.541 133.247C113.758 133.307 112.971 133.307 112.187 133.247C86.8902 129.943 63.3902 118.385 45.3307 100.365C27.3105 82.3051 15.7522 58.804 12.4483 33.5062L12.4482 33.5056C12.0928 30.91 12.3035 28.2682 13.0659 25.7618C13.8283 23.2554 15.1242 20.9438 16.8646 18.9857C18.5697 17.0794 20.6584 15.5549 22.9938 14.5123C25.3293 13.4697 27.8588 12.9324 30.4165 12.9358H30.4166L48.7274 12.9358L48.7289 12.9358C53.0528 12.8729 57.2571 14.3559 60.5846 17.1178C63.9117 19.8792 66.1436 23.7377 66.8786 27.9985L106.032 75.9808M105.998 76.0746C105.998 76.0745 105.997 76.0745 105.997 76.0744L106.032 75.9808M105.998 76.0746C105.998 76.0746 105.998 76.0747 105.998 76.0748L106.032 75.9808M105.998 76.0746C103.199 75.0565 100.122 75.1095 97.3604 76.2232C94.5981 77.3371 92.3453 79.4331 91.0356 82.1081M106.032 75.9808C103.21 74.9541 100.108 75.0074 97.323 76.1305C94.5378 77.2535 92.2664 79.367 90.9458 82.0641M91.0356 82.1081L91.036 82.1073L90.9458 82.0641M91.0356 82.1081L90.9458 82.0641M121.158 115.58L121.158 115.584C121.156 116.446 120.974 117.299 120.622 118.087C120.271 118.875 119.758 119.581 119.118 120.159C118.44 120.776 117.634 121.235 116.757 121.503C115.88 121.77 114.955 121.839 114.049 121.705C91.3258 118.737 70.2089 108.382 53.9495 92.2334L53.9492 92.2332C37.676 75.9599 27.2304 54.7693 24.2342 31.9513C24.1001 31.0447 24.1691 30.1196 24.4364 29.2429C24.7037 28.3661 25.1627 27.5596 25.78 26.882C26.3651 26.2337 27.0808 25.7168 27.88 25.3651C28.6792 25.0134 29.5439 24.835 30.417 24.8416H48.6654C50.0943 24.807 51.4911 25.2685 52.6182 26.1476C53.7456 27.0269 54.5334 28.2698 54.8475 29.6647L54.8499 29.6755V29.6866C54.8499 30.9228 55.1626 32.1907 55.4741 33.4543C55.5729 33.8548 55.6715 34.2548 55.7601 34.6533L55.7601 34.6534C56.4621 37.8355 57.396 40.9619 58.5542 44.0078L58.5872 44.0943L58.5034 44.1337L49.9868 48.1488L49.9858 48.1492C48.546 48.8101 47.4271 50.0151 46.8745 51.4998L46.8733 51.503L46.8733 51.503C46.2751 52.959 46.2748 54.592 46.8724 56.0482C55.6174 74.7786 70.6738 89.835 89.4043 98.58C90.8604 99.1776 92.4935 99.1773 93.9494 98.5791L93.9525 98.5779L93.9526 98.5779C95.4371 98.0254 96.6419 96.9067 97.3029 95.4673L121.158 115.58ZM121.158 115.58L120.611 96.7855C120.645 95.3571 120.184 93.9609 119.305 92.8342C118.425 91.7068 117.183 90.919 115.788 90.6049L115.788 90.6046L115.78 90.6035C114.14 90.3605 112.439 90.0568 110.861 89.6925L110.86 89.6923C107.602 88.9742 104.395 88.0406 101.261 86.8977L101.174 86.8659L101.135 86.9506L97.3032 95.4666L121.158 115.58ZM55.6624 34.675C55.5751 34.2819 55.4773 33.8854 55.3791 33.4871C55.0668 32.2208 54.7499 30.9361 54.7499 29.6866C54.4409 28.3143 53.6658 27.0916 52.5567 26.2264L55.6624 34.675ZM55.6624 34.675C56.3655 37.8618 57.3008 40.9929 58.4608 44.0433L55.6624 34.675ZM81.9424 24.2333V24.2329L81.934 24.2337C80.347 24.3685 78.7714 23.8675 77.5539 22.8407C76.3363 21.8139 75.5766 20.3455 75.4417 18.7586C75.3068 17.1716 75.8078 15.596 76.8346 14.3785C77.8605 13.162 79.3272 12.4025 80.9125 12.2666H80.9165H80.9247H80.9329H80.9411H80.9493H80.9575H80.9657H80.9739H80.9821H80.9903H80.9985H81.0068H81.015H81.0232H81.0314H81.0396H81.0478H81.0561H81.0643H81.0725H81.0807H81.089H81.0972H81.1054H81.1137H81.1219H81.1301H81.1384H81.1466H81.1548H81.1631H81.1713H81.1795H81.1878H81.196H81.2043H81.2125H81.2208H81.229H81.2373H81.2455H81.2538H81.262H81.2703H81.2785H81.2868H81.295H81.3033H81.3116H81.3198H81.3281H81.3363H81.3446H81.3529H81.3611H81.3694H81.3777H81.3859H81.3942H81.4025H81.4108H81.419H81.4273H81.4356H81.4439H81.4521H81.4604H81.4687H81.477H81.4853H81.4935H81.5018H81.5101H81.5184H81.5267H81.535H81.5433H81.5515H81.5598H81.5681H81.5764H81.5847H81.593H81.6013H81.6096H81.6179H81.6262H81.6345H81.6428H81.6511H81.6594H81.6677H81.676H81.6843H81.6926H81.7009H81.7092H81.7175H81.7258H81.7342H81.7425H81.7508H81.7591H81.7674H81.7757H81.784H81.7924H81.8007H81.809H81.8173H81.8256H81.8339H81.8423H81.8506H81.8589H81.8672H81.8755H81.8839H81.8922H81.9005H81.9089H81.9172H81.9255H81.9338H81.9422H81.9505H81.9588H81.9672H81.9755H81.9838H81.9922H82.0005H82.0088H82.0172H82.0255H82.0338H82.0422H82.0505H82.0588H82.0672H82.0755H82.0839H82.0922H82.1006H82.1089H82.1172H82.1256H82.1339H82.1423H82.1506H82.159H82.1673H82.1757H82.184H82.1924H82.2007H82.2091H82.2174H82.2258H82.2341H82.2425H82.2508H82.2592H82.2675H82.2759H82.2842H82.2926H82.3009H82.3093H82.3176H82.326H82.3344H82.3427H82.3511H82.3594H82.3678H82.3762H82.3845H82.3929H82.4012H82.4096H82.418H82.4263H82.4347H82.443H82.4514H82.4598H82.4681H82.4765H82.4849H82.4932H82.5016H82.5099H82.5183H82.5267H82.535H82.5434H82.5518H82.5602H82.5685H82.5769H82.5853H82.5936H82.602H82.6104H82.6187H82.6271H82.6355H82.6438H82.6522H82.6606H82.669H82.6773H82.6857H82.6941H82.7024H82.7108H82.7192H82.7276H82.7359H82.7443H82.7527H82.7611H82.7694H82.7778H82.7862H82.7945H82.8029H82.8113H82.8197H82.828H82.8364H82.8448H82.8532H82.8615H82.8699H82.8783H82.8867H82.8951H82.9034H82.9118H82.9202H82.9286H82.9369H82.9453H82.9537H82.9621H82.9704H82.9788H82.9872H82.9956H83.0039H83.0123H83.0207H83.0291H83.0374H83.0458H83.0542H83.0626H83.0709H83.0793H83.0877H83.0961H83.1045H83.1128H83.1212H83.1296H83.138H83.1463H83.1547H83.1631H83.1715H83.1798H83.1882H83.1966H83.205H83.2133H83.2217H83.2301H83.2385H83.2468H83.2552H83.2636H83.272H83.2803H83.2887H83.2971H83.3055H83.3138H83.3222H83.3306H83.339H83.3473H83.3557H83.3641H83.3724H83.3808H83.3892H83.3976H83.4059H83.4143H83.4227H83.431H83.4394H83.4478H83.4562H83.4645H83.4729H83.4813H83.4896H83.498H83.5064H83.5147H83.5231H83.5315H83.5398H83.5482H83.5566H83.5649H83.5733H83.5817H83.59H83.5984H83.6068H83.6151H83.6235H83.6318H83.6402H83.6486H83.6569H83.6653H83.6737H83.682H83.6904H83.6987H83.7071H83.7155H83.7238H83.7322H83.7405H83.7489H83.7572H83.7656H83.774H83.7823H83.7907H83.799H83.8074H83.8157H83.8241H83.8324H83.8408H83.8491H83.8575H83.8658H83.8742H83.8825H83.8909H83.8992H83.9076H83.9159H83.9243H83.9326H83.941H83.9493H83.9576H83.966H83.9743H83.9827H83.991H83.9994H84.0077H84.016H84.0244H84.0327H84.0411H84.0494H84.0577H84.0661H84.0744H84.0827H84.0911H84.0994H84.1077H84.1161H84.1244H84.1327H84.1411H84.1494H84.1577H84.166H84.1744H84.1827H84.191H84.1993H84.2077H84.216H84.2243H84.2326H84.2409H84.2493H84.2576H84.2659H84.2742H84.2825H84.2909H84.2992H84.3075H84.3158H84.3241H84.3324H84.3407H84.349H84.3573H84.3657H84.374H84.3823H84.3906H84.3989H84.4072H84.4155H84.4238H84.4321H84.4404H84.4487H84.457H84.4653H84.4736H84.4819H84.4902H84.4985H84.5068H84.5151H84.5233H84.5316H84.5399H84.5482H84.5565H84.5648H84.5731H84.5814H84.5896H84.5979H84.6062H84.6145H84.6228H84.631H84.6393H84.6476H84.6559H84.6641H84.6724H84.6807H84.6889H84.6972H84.7055H84.7138H84.722H84.7303H84.7385H84.7468H84.7551H84.7633H84.7716H84.7798H84.7881H84.7964H84.8046H84.8129H84.8211H84.8294H84.8376H84.8459H84.8541H84.8624H84.8706H84.8789H84.8871H84.8953H84.9036H84.9118H84.9201H84.9283H84.9365H84.9448H84.953H84.9612H84.9695H84.9777H84.9859H84.9941H85.0024H85.0106H85.0188H85.027H85.0353H85.0435H85.0517H85.0599H85.0681H85.0763H85.0846H85.0928H85.101H85.1092H85.1174H85.1256H85.1338H85.142H85.1502H85.1584H85.1665C98.0367 12.2827 110.374 17.4067 119.469 26.5129C128.564 35.6192 133.672 47.9631 133.672 60.8333V60.8415V60.8497V60.8579V60.8661V60.8743V60.8825V60.8907V60.8989V60.9071V60.9153V60.9236V60.9318V60.94V60.9482V60.9564V60.9646V60.9729V60.9811V60.9893V60.9975V61.0058V61.014V61.0222V61.0304V61.0387V61.0469V61.0551V61.0634V61.0716V61.0798V61.0881V61.0963V61.1046V61.1128V61.1211V61.1293V61.1375V61.1458V61.154V61.1623V61.1705V61.1788V61.187V61.1953V61.2035V61.2118V61.2201V61.2283V61.2366V61.2448V61.2531V61.2614V61.2696V61.2779V61.2862V61.2944V61.3027V61.311V61.3192V61.3275V61.3358V61.344V61.3523V61.3606V61.3689V61.3772V61.3854V61.3937V61.402V61.4103V61.4186V61.4268V61.4351V61.4434V61.4517V61.46V61.4683V61.4766V61.4849V61.4931V61.5014V61.5097V61.518V61.5263V61.5346V61.5429V61.5512V61.5595V61.5678V61.5761V61.5844V61.5927V61.601V61.6093V61.6176V61.6259V61.6343V61.6426V61.6509V61.6592V61.6675V61.6758V61.6841V61.6924V61.7007V61.7091V61.7174V61.7257V61.734V61.7423V61.7506V61.759V61.7673V61.7756V61.7839V61.7922V61.8006V61.8089V61.8172V61.8255V61.8339V61.8422V61.8505V61.8589V61.8672V61.8755V61.8838V61.8922V61.9005V61.9088V61.9172V61.9255V61.9338V61.9422V61.9505V61.9589V61.9672V61.9755V61.9839V61.9922V62.0005V62.0089V62.0172V62.0256V62.0339V62.0423V62.0506V62.0589V62.0673V62.0756V62.084V62.0923V62.1007V62.109V62.1174V62.1257V62.1341V62.1424V62.1508V62.1591V62.1675V62.1758V62.1842V62.1925V62.2009V62.2092V62.2176V62.226V62.2343V62.2427V62.251V62.2594V62.2677V62.2761V62.2845V62.2928V62.3012V62.3095V62.3179V62.3263V62.3346V62.343V62.3513V62.3597V62.3681V62.3764V62.3848V62.3932V62.4015V62.4099V62.4182V62.4266V62.435V62.4433V62.4517V62.4601V62.4684V62.4768V62.4852V62.4935V62.5019V62.5103V62.5186V62.527V62.5354V62.5438V62.5521V62.5605V62.5689V62.5772V62.5856V62.594V62.6023V62.6107V62.6191V62.6275V62.6358V62.6442V62.6526V62.661V62.6693V62.6777V62.6861V62.6944V62.7028V62.7112V62.7196V62.7279V62.7363V62.7447V62.7531V62.7614V62.7698V62.7782V62.7866V62.7949V62.8033V62.8117V62.8201V62.8284V62.8368V62.8452V62.8536V62.8619V62.8703V62.8787V62.8871V62.8955V62.9038V62.9122V62.9206V62.929V62.9373V62.9457V62.9541V62.9625V62.9708V62.9792V62.9876V62.996V63.0043V63.0127V63.0211V63.0295V63.0378V63.0462V63.0546V63.063V63.0714V63.0797V63.0881V63.0965V63.1049V63.1132V63.1216V63.13V63.1384V63.1467V63.1551V63.1635V63.1719V63.1802V63.1886V63.197V63.2054V63.2137V63.2221V63.2305V63.2389V63.2472V63.2556V63.264V63.2723V63.2807V63.2891V63.2975V63.3058V63.3142V63.3226V63.331V63.3393V63.3477V63.3561V63.3644V63.3728V63.3812V63.3895V63.3979V63.4063V63.4146V63.423V63.4314V63.4398V63.4481V63.4565V63.4649V63.4732V63.4816V63.49V63.4983V63.5067V63.515V63.5234V63.5318V63.5401V63.5485V63.5569V63.5652V63.5736V63.582V63.5903V63.5987V63.607V63.6154V63.6238V63.6321V63.6405V63.6488V63.6572V63.6656V63.6739V63.6823V63.6906V63.699V63.7073V63.7157V63.724V63.7324V63.7407V63.7491V63.7575V63.7658V63.7742V63.7825V63.7909V63.7992V63.8076V63.8159V63.8242V63.8326V63.8409V63.8493V63.8576V63.866V63.8743V63.8827V63.891V63.8994V63.9077V63.916V63.9244V63.9327V63.9411V63.9494V63.9577V63.9661V63.9744V63.9827V63.9911V63.9994V64.0078V64.0161V64.0244V64.0327V64.0411V64.0494V64.0577V64.0661V64.0744V64.0827V64.0911V64.0994V64.1077V64.116V64.1244V64.1327V64.141V64.1493V64.1576V64.166V64.1743V64.1826V64.1909V64.1992V64.2076V64.2159V64.2242V64.2325V64.2408V64.2491V64.2574V64.2658V64.2741V64.2824V64.2907V64.299V64.3073V64.3156V64.3239V64.3322V64.3405V64.3488V64.3571V64.3654V64.3737V64.382V64.3903V64.3986V64.4069V64.4152V64.4235V64.4318V64.4401V64.4484V64.4566V64.4649V64.4732V64.4815V64.4898V64.4981V64.5064V64.5147V64.5229V64.5312V64.5395V64.5478V64.556V64.5643V64.5726V64.5809V64.5892V64.5974V64.6057V64.614V64.6222V64.6305V64.6388V64.647V64.6553V64.6636V64.6718V64.6801V64.6884V64.6966V64.7049V64.7131V64.7214V64.7296V64.7379V64.7461V64.7544V64.7626V64.7709V64.7791V64.7874V64.7956V64.8039V64.8121V64.8204V64.8286V64.8368V64.8451V64.8533V64.8616V64.8698V64.878V64.8863V64.8945V64.9027V64.9109V64.9192V64.9274V64.9356V64.9438V64.9521V64.9603V64.9685V64.9767V64.9849V64.9932V65.0014V65.0096V65.0178V65.026V65.0342V65.0424V65.0506V65.0588V65.067V65.0752V65.0834V65.0871C133.537 66.5772 132.848 67.9624 131.741 68.9695C130.633 69.9776 129.187 70.5335 127.69 70.5275H127.689H127.207C125.63 70.3895 124.173 69.6326 123.153 68.4223C122.132 67.211 121.634 65.6443 121.766 64.0658L121.767 64.0659V64.0575V64.051V64.0446V64.0382V64.0318V64.0254V64.019V64.0126V64.0062V63.9998V63.9934V63.987V63.9806V63.9742V63.9678V63.9614V63.955V63.9486V63.9422V63.9358V63.9294V63.923V63.9166V63.9103V63.9039V63.8975V63.8911V63.8847V63.8783V63.872V63.8656V63.8592V63.8528V63.8465V63.8401V63.8337V63.8273V63.821V63.8146V63.8082V63.8019V63.7955V63.7892V63.7828V63.7764V63.7701V63.7637V63.7574V63.751V63.7446V63.7383V63.7319V63.7256V63.7192V63.7129V63.7065V63.7002V63.6938V63.6875V63.6812V63.6748V63.6685V63.6621V63.6558V63.6495V63.6431V63.6368V63.6304V63.6241V63.6178V63.6114V63.6051V63.5988V63.5925V63.5861V63.5798V63.5735V63.5671V63.5608V63.5545V63.5482V63.5419V63.5355V63.5292V63.5229V63.5166V63.5103V63.5039V63.4976V63.4913V63.485V63.4787V63.4724V63.4661V63.4598V63.4534V63.4471V63.4408V63.4345V63.4282V63.4219V63.4156V63.4093V63.403V63.3967V63.3904V63.3841V63.3778V63.3715V63.3652V63.3589V63.3526V63.3463V63.34V63.3337V63.3274V63.3212V63.3149V63.3086V63.3023V63.296V63.2897V63.2834V63.2771V63.2709V63.2646V63.2583V63.252V63.2457V63.2394V63.2332V63.2269V63.2206V63.2143V63.208V63.2018V63.1955V63.1892V63.1829V63.1767V63.1704V63.1641V63.1578V63.1516V63.1453V63.139V63.1327V63.1265V63.1202V63.1139V63.1077V63.1014V63.0951V63.0889V63.0826V63.0763V63.0701V63.0638V63.0575V63.0513V63.045V63.0387V63.0325V63.0262V63.02V63.0137V63.0074V63.0012V62.9949V62.9887V62.9824V62.9762V62.9699V62.9636V62.9574V62.9511V62.9449V62.9386V62.9324V62.9261V62.9198V62.9136V62.9073V62.9011V62.8948V62.8886V62.8823V62.8761V62.8698V62.8636V62.8573V62.8511V62.8448V62.8386V62.8323V62.8261V62.8198V62.8136V62.8074V62.8011V62.7949V62.7886V62.7824V62.7761V62.7699V62.7636V62.7574V62.7511V62.7449V62.7387V62.7324V62.7262V62.7199V62.7137V62.7074V62.7012V62.695V62.6887V62.6825V62.6762V62.67V62.6637V62.6575V62.6513V62.645V62.6388V62.6325V62.6263V62.6201V62.6138V62.6076V62.6013V62.5951V62.5889V62.5826V62.5764V62.5701V62.5639V62.5577V62.5514V62.5452V62.539V62.5327V62.5265V62.5202V62.514V62.5078V62.5015V62.4953V62.489V62.4828V62.4766V62.4703V62.4641V62.4579V62.4516V62.4454V62.4391V62.4329V62.4267V62.4204V62.4142V62.408V62.4017V62.3955V62.3892V62.383V62.3768V62.3705V62.3643V62.3581V62.3518V62.3456V62.3393V62.3331V62.3269V62.3206V62.3144V62.3081V62.3019V62.2957V62.2894V62.2832V62.2769V62.2707V62.2645V62.2582V62.252V62.2457V62.2395V62.2333V62.227V62.2208V62.2145V62.2083V62.2021V62.1958V62.1896V62.1833V62.1771V62.1708V62.1646V62.1584V62.1521V62.1459V62.1396V62.1334V62.1271V62.1209V62.1146V62.1084V62.1022V62.0959V62.0897V62.0834V62.0772V62.0709V62.0647V62.0584V62.0522V62.0459V62.0397V62.0334V62.0272V62.0209V62.0147V62.0084V62.0022V61.9959V61.9897V61.9834V61.9772V61.9709V61.9647V61.9584V61.9521V61.9459V61.9396V61.9334V61.9271V61.9209V61.9146V61.9084V61.9021V61.8958V61.8896V61.8833V61.8771V61.8708V61.8645V61.8583V61.852V61.8458V61.8395V61.8332V61.827V61.8207V61.8144V61.8082V61.8019V61.7956V61.7894V61.7831V61.7768V61.7706V61.7643V61.758V61.7517V61.7455V61.7392V61.7329V61.7267V61.7204V61.7141V61.7078V61.7016V61.6953V61.689V61.6827V61.6764V61.6702V61.6639V61.6576V61.6513V61.645V61.6388V61.6325V61.6262V61.6199V61.6136V61.6073V61.601V61.5948V61.5885V61.5822V61.5759V61.5696V61.5633V61.557V61.5507V61.5444V61.5381V61.5318V61.5255V61.5192V61.513V61.5067V61.5004V61.4941V61.4878V61.4814V61.4751V61.4688V61.4625V61.4562V61.4499V61.4436V61.4373V61.431V61.4247V61.4184V61.4121V61.4058V61.3994V61.3931V61.3868V61.3805V61.3742V61.3679V61.3615V61.3552V61.3489V61.3426V61.3363V61.3299V61.3236V61.3173V61.311V61.3046V61.2983V61.292V61.2856V61.2793V61.273V61.2667V61.2603V61.254V61.2476V61.2413V61.235V61.2286V61.2223V61.216V61.2096V61.2033V61.1969V61.1906V61.1842V61.1779V61.1715V61.1652V61.1588V61.1525V61.1461V61.1398V61.1334V61.127V61.1207V61.1143V61.108V61.1016V61.0952V61.0889V61.0825V61.0762V61.0698V61.0634V61.057V61.0507V61.0443V61.0379V61.0316V61.0252V61.0188V61.0124V61.006V60.9997V60.9933V60.9869V60.9805V60.9741V60.9677V60.9613V60.955V60.9486V60.9422V60.9358V60.9294V60.923V60.9166V60.9102V60.9038V60.8974V60.891V60.8846V60.8782V60.8718V60.8654V60.859V60.8525V60.8461V60.8397V60.8333C121.767 51.1264 117.911 41.817 111.047 34.9532C104.183 28.0894 94.8735 24.2333 85.1666 24.2333H81.9424ZM99.1857 65.0642C98.0637 63.9421 97.4333 62.4202 97.4333 60.8333C97.4333 57.58 96.1409 54.4599 93.8404 52.1595C91.54 49.859 88.4199 48.5666 85.1666 48.5666C83.5797 48.5666 82.0578 47.9362 80.9358 46.8142C79.8137 45.6921 79.1833 44.1702 79.1833 42.5833C79.1833 40.9964 79.8137 39.4745 80.9358 38.3524C82.0578 37.2303 83.5797 36.6 85.1666 36.6C91.5937 36.6 97.7575 39.1531 102.302 43.6977C106.847 48.2424 109.4 54.4062 109.4 60.8333C109.4 62.4202 108.77 63.9421 107.647 65.0642C106.525 66.1862 105.003 66.8166 103.417 66.8166C101.83 66.8166 100.308 66.1862 99.1857 65.0642Z" fill="#EDB935" stroke="#111111" stroke-width="0.2"/>
</svg>
