<svg width="6" height="17" viewBox="0 0 6 17" fill="none" xmlns="http://www.w3.org/2000/svg">
<path d="M2.536 4.828C1.95733 4.828 1.45333 4.632 1.024 4.24C0.594667 3.82933 0.38 3.316 0.38 2.7C0.38 2.00933 0.622667 1.44933 1.108 1.02C1.612 0.571999 2.21867 0.348 2.928 0.348C3.6 0.348 4.132 0.562666 4.524 0.992C4.93467 1.40267 5.14 1.89733 5.14 2.476C5.14 3.204 4.89733 3.78267 4.412 4.212C3.92667 4.62267 3.30133 4.828 2.536 4.828ZM2.536 16.252C1.95733 16.252 1.45333 16.056 1.024 15.664C0.594667 15.2533 0.38 14.74 0.38 14.124C0.38 13.4333 0.622667 12.8733 1.108 12.444C1.612 11.996 2.21867 11.772 2.928 11.772C3.6 11.772 4.132 11.9867 4.524 12.416C4.93467 12.8267 5.14 13.3213 5.14 13.9C5.14 14.628 4.89733 15.2067 4.412 15.636C3.92667 16.0467 3.30133 16.252 2.536 16.252Z" fill="#EDB935"/>
</svg>
