<svg width="31" height="32" viewBox="0 0 31 32" fill="none" xmlns="http://www.w3.org/2000/svg">
<path d="M30.9 5.62054L30.9 5.61986C30.9012 4.72498 30.6368 3.84988 30.1402 3.10543C29.6436 2.36098 28.9372 1.78069 28.1105 1.43807C27.2839 1.09545 26.3741 1.00593 25.4965 1.18084C24.6188 1.35576 23.8129 1.78725 23.1807 2.42064L23.1807 2.42071L18.9657 6.63571L18.922 6.67939L18.8634 6.65988L9.12998 3.42039C9.12972 3.42031 9.12946 3.42023 9.1292 3.42015C8.88752 3.34434 8.62979 3.33552 8.38348 3.39464C8.137 3.45379 7.9112 3.57876 7.73018 3.7562C7.73011 3.75627 7.73005 3.75633 7.72998 3.75639L4.16109 7.2953C4.16098 7.29541 4.16087 7.29552 4.16076 7.29563C4.00305 7.45528 3.88602 7.6505 3.81955 7.86485C3.75303 8.07934 3.73909 8.30669 3.7789 8.5277C3.81871 8.74872 3.9111 8.95691 4.04828 9.13472C4.18538 9.31242 4.3632 9.45455 4.56673 9.54913C4.56685 9.54919 4.56697 9.54924 4.56709 9.5493L12.3363 13.0739L12.4678 13.1336L12.3657 13.2357L8.46568 17.1357L8.41459 17.1868L8.35004 17.1543L5.78504 15.8643L5.78235 15.863L5.78237 15.8629C5.52389 15.723 5.22794 15.6681 4.93647 15.7057C4.64569 15.7433 4.37407 15.8713 4.15992 16.0715L1.50646 18.7849L1.50589 18.7855C1.24514 19.0478 1.09878 19.4026 1.09878 19.7725C1.09878 20.1423 1.24506 20.497 1.50568 20.7593L30.9 5.62054ZM30.9 5.62054C30.9032 6.21465 30.7881 6.80345 30.5614 7.3526C30.3347 7.90176 30.0009 8.40027 29.5795 8.81906L29.5785 8.82005L25.4235 13.065L25.3808 13.1087L25.4001 13.1666L28.6396 22.9C28.6396 22.9002 28.6397 22.9005 28.6398 22.9007C28.7156 23.1424 28.7244 23.4002 28.6653 23.6465C28.6062 23.8929 28.4813 24.1186 28.3039 24.2996C28.3038 24.2997 28.3037 24.2999 28.3036 24.3L24.7647 27.8389C24.7646 27.8389 24.7646 27.839 24.7645 27.839C24.6048 27.9968 24.4095 28.1139 24.1951 28.1804C23.9806 28.2469 23.7533 28.2609 23.5323 28.2211C23.3112 28.1813 23.1031 28.0889 22.9252 27.9517C22.7475 27.8146 22.6054 27.6367 22.5108 27.4331C22.5108 27.4331 22.5107 27.433 22.5107 27.4329L18.986 19.6637L18.9264 19.5322L18.8243 19.6343L14.9243 23.5343L14.8732 23.5854L14.9056 23.6499L16.1956 26.2149C16.3284 26.479 16.3742 26.7784 16.3264 27.0701C16.2787 27.3617 16.1398 27.6308 15.9299 27.8387C15.9298 27.8388 15.9297 27.8388 15.9296 27.8389L13.215 30.4935L13.2145 30.4941M30.9 5.62054L13.2145 30.4941M13.2145 30.4941C12.9522 30.7548 12.5973 30.9012 12.2275 30.9012C11.8577 30.9012 11.503 30.7549 11.2407 30.4943L13.2145 30.4941ZM11.2405 30.4941L1.50589 20.7595L11.2405 30.4941ZM27.5907 6.84571L27.5907 6.84573L27.5925 6.8438C27.7475 6.68032 27.8683 6.48749 27.9477 6.27667C28.0267 6.06685 28.0632 5.84342 28.055 5.61939C28.0605 5.39305 28.018 5.1681 27.9301 4.95941C27.8421 4.75048 27.7108 4.56264 27.5447 4.40832C27.3863 4.24678 27.1973 4.11838 26.9887 4.03062C26.7794 3.94254 26.5546 3.89717 26.3275 3.89717C26.1004 3.89717 25.8755 3.94254 25.6662 4.03062C25.4571 4.11862 25.2676 4.24749 25.1089 4.40966C25.1087 4.4098 25.1086 4.40994 25.1085 4.41008L20.25 9.2686C20.2498 9.26872 20.2497 9.26885 20.2496 9.26897C20.0686 9.44632 19.8429 9.57122 19.5965 9.63035C19.3501 9.68947 19.0924 9.68065 18.8507 9.60484C18.8505 9.60476 18.8502 9.60468 18.85 9.6046L9.13159 6.36513L9.07296 6.34558L9.02926 6.38928L7.67926 7.73928L7.57691 7.84164L7.70885 7.90115L15.5235 11.426C15.5236 11.426 15.5236 11.426 15.5236 11.426C15.7298 11.5199 15.9102 11.6625 16.0492 11.8414C16.1882 12.0204 16.2816 12.2304 16.3216 12.4535C16.3615 12.6766 16.3467 12.906 16.2784 13.1221C16.2101 13.3381 16.0904 13.5344 15.9295 13.694L15.9291 13.6945L9.71922 19.9343C9.51235 20.1414 9.24578 20.2784 8.95698 20.3261C8.66829 20.3738 8.3719 20.3299 8.10948 20.2004C8.10939 20.2004 8.10931 20.2004 8.10922 20.2003L5.5449 18.9107L5.48454 18.8803L5.43385 18.925L4.54885 19.705L4.46903 19.7753L4.54419 19.8506L12.0892 27.4106L12.1599 27.4815L12.2307 27.4107L13.0707 26.5707L13.1211 26.5203L13.0898 26.4561L11.8598 23.9361L11.8596 23.9357C11.7301 23.6733 11.6861 23.3768 11.7338 23.088C11.7815 22.7992 11.9186 22.5326 12.1256 22.3257L12.126 22.3254L18.306 16.0854C18.4662 15.9237 18.6634 15.8035 18.8805 15.7351C19.0976 15.6668 19.3281 15.6525 19.552 15.6934C19.7741 15.7341 19.9829 15.828 20.1609 15.9669C20.3388 16.1059 20.4805 16.2858 20.5739 16.4914L20.5739 16.4914L24.0989 24.2464L24.1586 24.3777L24.2607 24.2757L25.6107 22.9257L25.6544 22.882L25.6348 22.8234L22.3954 13.105C22.3953 13.1048 22.3952 13.1045 22.3951 13.1043C22.3193 12.8626 22.3105 12.6048 22.3696 12.3585C22.4287 12.1121 22.5537 11.8863 22.731 11.7053C22.7311 11.7052 22.7313 11.7051 22.7314 11.705L27.5907 6.84571Z" fill="#E8E8E8" fill-opacity="0.3" stroke="#303030" stroke-width="0.2"/>
</svg>
